<svg width="690" height="157" viewBox="0 0 690 157" fill="none" xmlns="http://www.w3.org/2000/svg">
<path d="M302.459 69.1177H262.375C261.341 69.1177 260.502 69.9573 260.502 70.9929V90.5894C260.502 91.6237 261.341 92.4659 262.375 92.4659H278.011V116.814C278.011 116.814 274.501 118.011 264.793 118.011C253.341 118.011 237.343 113.826 237.343 78.6464C237.343 43.4611 254.002 38.8312 269.642 38.8312C283.18 38.8312 289.012 41.2137 292.724 42.3619C293.89 42.7194 294.968 41.5593 294.968 40.5237L299.439 21.5882C299.439 21.1048 299.275 20.5208 298.724 20.1248C297.217 19.0507 288.022 13.9056 264.793 13.9056C238.035 13.9056 210.585 25.2897 210.585 80.0197C210.585 134.75 242.012 142.905 268.495 142.905C290.422 142.905 303.724 133.535 303.724 133.535C304.272 133.232 304.332 132.467 304.332 132.114V70.9929C304.332 69.9573 303.493 69.1177 302.459 69.1177" fill="#FAF7F0"/>
<path d="M509.036 20.4624C509.036 19.4202 508.21 18.5779 507.174 18.5779H484.604C483.574 18.5779 482.736 19.4202 482.736 20.4624C482.736 20.4677 482.742 64.0799 482.742 64.0799H447.561V20.4624C447.561 19.4202 446.732 18.5779 445.699 18.5779H423.131C422.104 18.5779 421.266 19.4202 421.266 20.4624V138.565C421.266 139.607 422.104 140.455 423.131 140.455H445.699C446.732 140.455 447.561 139.607 447.561 138.565V88.0492H482.742C482.742 88.0492 482.68 138.561 482.68 138.565C482.68 139.607 483.517 140.455 484.55 140.455H507.173C508.207 140.455 509.033 139.607 509.036 138.565V20.4624" fill="#FAF7F0"/>
<path d="M345.049 35.96C345.049 27.8338 338.534 21.2663 330.495 21.2663C322.465 21.2663 315.943 27.8338 315.943 35.96C315.943 44.0796 322.465 50.6642 330.495 50.6642C338.534 50.6642 345.049 44.0796 345.049 35.96Z" fill="#FAF7F0"/>
<path d="M343.436 113.653C343.436 110.625 343.436 59.1361 343.436 59.1361C343.436 58.1005 342.6 57.2542 341.568 57.2542H319.069C318.037 57.2542 317.114 58.319 317.114 59.3533C317.114 59.3533 317.114 124.955 317.114 137.459C317.114 139.754 318.544 140.438 320.394 140.438C320.394 140.438 329.999 140.438 340.665 140.438C342.89 140.438 343.436 139.345 343.436 137.422C343.436 133.236 343.436 116.835 343.436 113.653" fill="#FAF7F0"/>
<path d="M594.81 57.4317H572.414C571.388 57.4317 570.551 58.2793 570.551 59.3202V117.23C570.551 117.23 564.86 121.392 556.784 121.392C548.71 121.392 546.567 117.728 546.567 109.82C546.567 101.903 546.567 59.3202 546.567 59.3202C546.567 58.2793 545.732 57.4317 544.703 57.4317H521.972C520.947 57.4317 520.106 58.2793 520.106 59.3202C520.106 59.3202 520.106 90.159 520.106 113.645C520.106 137.132 533.196 142.877 551.203 142.877C565.978 142.877 577.889 134.717 577.889 134.717C577.889 134.717 578.456 139.018 578.713 139.528C578.968 140.037 579.637 140.55 580.36 140.55L594.821 140.486C595.846 140.486 596.687 139.638 596.687 138.601L596.679 59.3202C596.679 58.2793 595.843 57.4317 594.81 57.4317" fill="#FAF7F0"/>
<path d="M647.191 121.321C639.422 121.085 634.153 117.56 634.153 117.56V80.1589C634.153 80.1589 639.351 76.9724 645.729 76.403C653.794 75.6812 661.565 78.1167 661.565 97.3568C661.565 117.645 658.058 121.649 647.191 121.321ZM656.024 54.779C643.304 54.779 634.652 60.4552 634.652 60.4552V20.4625C634.652 19.4202 633.817 18.5779 632.79 18.5779H610.155C609.126 18.5779 608.291 19.4202 608.291 20.4625V138.565C608.291 139.608 609.126 140.455 610.158 140.455C610.161 140.455 625.857 140.455 625.862 140.455C626.569 140.455 627.104 140.091 627.5 139.453C627.891 138.817 628.454 134.007 628.454 134.007C628.454 134.007 637.708 142.777 655.228 142.777C675.798 142.777 687.594 132.345 687.594 95.9411C687.594 59.5361 668.754 54.779 656.024 54.779" fill="#FAF7F0"/>
<path d="M408.302 57.2436H391.372C391.372 57.2436 391.347 34.882 391.347 34.878C391.347 34.0304 390.91 33.608 389.931 33.608H366.861C365.963 33.608 365.482 34.0026 365.482 34.8648V57.9773C365.482 57.9773 353.92 60.7677 353.138 60.9941C352.36 61.2193 351.787 61.9371 351.787 62.794V77.3181C351.787 78.363 352.621 79.2053 353.653 79.2053H365.482C365.482 79.2053 365.482 94.3969 365.482 114.147C365.482 140.1 383.686 142.65 395.97 142.65C401.584 142.65 408.298 140.847 409.407 140.438C410.077 140.192 410.466 139.496 410.466 138.744L410.486 122.766C410.486 121.725 409.605 120.881 408.615 120.881C407.627 120.881 405.104 121.282 402.505 121.282C394.189 121.282 391.372 117.417 391.372 112.411C391.372 107.41 391.37 79.2053 391.37 79.2053H408.302C409.334 79.2053 410.17 78.363 410.17 77.3181V59.1255C410.17 58.0832 409.334 57.2436 408.302 57.2436" fill="#FAF7F0"/>
<path fill-rule="evenodd" clip-rule="evenodd" d="M81.9748 -2.5304e-06C37.8117 -2.5304e-06 2 35.8051 2 79.9747C2 115.31 24.9152 145.288 56.6916 155.863C60.6885 156.603 62.1559 154.128 62.1559 152.015C62.1559 150.108 62.0817 143.808 62.0473 137.126C39.7982 141.964 35.1034 127.69 35.1034 127.69C31.4654 118.446 26.2237 115.988 26.2237 115.988C18.9676 111.024 26.7706 111.126 26.7706 111.126C34.8015 111.689 39.0301 119.369 39.0301 119.369C46.1631 131.594 57.7392 128.059 62.3029 126.016C63.0207 120.847 65.0933 117.317 67.3804 115.322C49.6169 113.299 30.9436 106.442 30.9436 75.7977C30.9436 67.0663 34.0678 59.9321 39.1837 54.3314C38.3534 52.3157 35.616 44.1829 39.9585 33.167C39.9585 33.167 46.6742 31.0175 61.9572 41.3647C68.3366 39.5927 75.1782 38.7041 81.9748 38.6736C88.7713 38.7041 95.6182 39.5927 102.01 41.3647C117.274 31.0175 123.98 33.167 123.98 33.167C128.334 44.1829 125.595 52.3157 124.764 54.3314C129.892 59.9321 132.995 67.0663 132.995 75.7977C132.995 106.515 114.286 113.278 96.4777 115.258C99.3463 117.74 101.902 122.607 101.902 130.068C101.902 140.769 101.81 149.381 101.81 152.015C101.81 154.144 103.249 156.637 107.303 155.852C139.062 145.265 161.948 115.298 161.948 79.9747C161.948 35.8051 126.142 -2.5304e-06 81.9748 -2.5304e-06" fill="#FAF7F0"/>
</svg>
