<svg width="113" height="42" viewBox="0 0 113 42" fill="none" xmlns="http://www.w3.org/2000/svg">
<g clip-path="url(#clip0_2_2)">
<path d="M27.113 34.2056L32.0464 35.699C31.7814 36.9469 31.2309 38.1335 30.4767 39.1768C29.7835 40.0974 28.8662 40.8134 27.8265 41.284C26.7664 41.7545 25.421 42 23.7901 42C21.8127 42 20.1819 41.7136 18.9384 41.1408C17.6744 40.568 16.594 39.545 15.6767 38.0926C14.7593 36.64 14.3108 34.7784 14.3108 32.5076C14.3108 29.4798 15.1059 27.1476 16.7163 25.5314C18.3268 23.9153 20.5896 23.0969 23.5251 23.0969C25.8287 23.0969 27.6227 23.5675 28.9477 24.4881C30.2524 25.4291 31.2309 26.8612 31.8832 28.7842L26.9092 29.8889C26.7868 29.4593 26.6034 29.0297 26.3587 28.6615C26.053 28.2319 25.6656 27.9046 25.1968 27.659C24.7279 27.4136 24.1979 27.3113 23.6678 27.3113C22.3835 27.3113 21.405 27.8227 20.7323 28.8661C20.2227 29.623 19.9576 30.83 19.9576 32.4667C19.9576 34.492 20.2634 35.8831 20.875 36.64C21.4865 37.397 22.3428 37.7653 23.464 37.7653C24.5444 37.7653 25.3599 37.4584 25.9103 36.8651C26.4607 36.2309 26.8684 35.3512 27.113 34.2056ZM38.631 23.4038H44.2574V29.8071H50.4139V23.4038H56.0811V41.6932H50.4139V34.2874H44.2574V41.6932H38.631V23.4038Z" fill="#FAF7F0"/>
<path d="M98.2795 23.4038H103.906V37.1924H112.692V41.6932H98.2592V23.4038H98.2795Z" fill="#FAF7F0"/>
<path d="M92.0777 22.3483C97.7426 18.0644 99.489 10.8026 95.9795 6.12852C92.4693 1.45443 85.0322 1.13811 79.3673 5.42199C73.7029 9.70584 71.9559 16.9677 75.4661 21.6418C78.9757 26.3159 86.4133 26.6322 92.0777 22.3483Z" stroke="#FAF7F0" stroke-width="4" stroke-miterlimit="10"/>
<path fill-rule="evenodd" clip-rule="evenodd" d="M63.5425 13.5635L58.1808 13.9114C58.3235 15.7526 59.037 17.2664 60.2398 18.4735C61.4427 19.6805 63.5831 20.2738 66.6814 20.2738C68.435 20.2738 69.9028 20.0078 71.0644 19.4963C72.143 19.0355 73.0644 18.2801 73.734 17.3073C73.5164 15.5823 73.7501 13.7599 74.3976 11.9962C74.299 11.7466 74.1794 11.5045 74.0407 11.2723C73.572 10.4744 72.7971 9.79932 71.7167 9.24696C70.6364 8.6946 68.8834 8.1627 66.4165 7.6308C65.4174 7.4262 64.7861 7.20114 64.5206 6.95568C64.2761 6.77154 64.1129 6.48516 64.1129 6.17826C64.0925 5.76912 64.2964 5.40087 64.6025 5.15538C64.9284 4.88943 65.4174 4.74622 66.0703 4.74622C66.8649 4.74622 67.4765 4.93034 67.9453 5.31905C68.4146 5.70774 68.6998 6.30102 68.8427 7.11936L74.1429 6.81246C73.9187 4.90989 73.1845 3.51875 71.9613 2.65952C70.7386 1.77983 68.9647 1.35022 66.6407 1.35022C64.7448 1.35022 63.2364 1.59571 62.156 2.06624C61.1569 2.45494 60.3211 3.15051 59.7097 4.0302C59.1797 4.80759 58.8943 5.74866 58.8943 6.6897C58.8535 8.0604 59.4447 9.34926 60.4843 10.2289C61.524 11.17 63.2973 11.9065 65.7642 12.4588C67.2727 12.7862 68.2311 13.1544 68.6388 13.5226C69.0263 13.8295 69.2505 14.3 69.2505 14.791C69.2505 15.3025 69.0053 15.7935 68.5982 16.1003C68.1701 16.489 67.5381 16.6732 66.7429 16.6732C65.6626 16.6732 64.8471 16.3049 64.2557 15.5684C63.8886 15.0979 63.6644 14.4433 63.5425 13.5635ZM1.2843 1.67754V19.9464H6.93114V12.5202H7.42039C7.90964 12.5202 8.39889 12.6634 8.80665 12.9498C9.1124 13.1749 9.43861 13.6454 9.82592 14.3614L12.843 19.9873H19.2441L16.5124 14.6887C16.2882 14.2796 16.0232 13.8909 15.7174 13.5431C15.4524 13.1953 15.167 12.868 14.8204 12.5816C14.3719 12.2952 13.8623 12.0497 13.3527 11.9065C14.0458 11.7838 14.7185 11.5382 15.33 11.1905C16.8998 10.2903 17.8171 8.57184 17.7559 6.77154C17.7763 5.70774 17.491 4.68485 16.8998 3.80516C16.3697 3.00731 15.5747 2.41403 14.6777 2.12762C13.7604 1.82075 12.4149 1.67754 10.6821 1.67754H1.2843ZM9.31628 9.08328H6.93114V5.38041H9.41822C10.4375 5.38041 11.151 5.54408 11.5179 5.85095C12.1907 6.48516 12.2722 7.5285 11.7218 8.265C11.4975 8.57184 11.1714 8.77644 10.8044 8.83782C10.3152 8.96052 9.82592 9.04236 9.31628 9.08328ZM5.36144 35.2898L0 35.6376C0.163086 37.4788 0.835811 38.9927 2.03857 40.2202C3.24133 41.4272 5.38183 42.0205 8.48044 42.0205C10.2336 42.0205 11.7014 41.7545 12.8634 41.243C13.9642 40.7725 14.9019 39.9951 15.5747 38.9927C16.2067 38.0312 16.5532 36.906 16.5532 35.7604C16.5532 34.8193 16.3086 33.8782 15.8193 33.0599C15.3504 32.2621 14.5758 31.5869 13.4953 31.0346C12.4149 30.4822 10.6617 29.9503 8.19507 29.4184C7.19613 29.2138 6.56422 28.9888 6.29918 28.7433C6.05453 28.5592 5.89147 28.2728 5.89147 27.9659C5.87109 27.5567 6.05453 27.1885 6.38073 26.943C6.70688 26.6566 7.19613 26.5134 7.84848 26.5134C8.64354 26.4929 9.27551 26.6771 9.72398 27.0658C10.1928 27.4544 10.4783 28.0477 10.6209 28.8661L15.9212 28.5592C15.697 26.6566 14.9835 25.2859 13.7604 24.4063C12.5372 23.5265 10.7636 23.0969 8.43966 23.0969C6.54384 23.0969 5.03527 23.3424 3.95483 23.813C2.95592 24.2017 2.12011 24.8972 1.50854 25.7769C0.978514 26.5543 0.693114 27.4954 0.693114 28.4364C0.652345 29.8071 1.24353 31.096 2.2832 31.9756C3.32287 32.9167 5.09643 33.6532 7.56311 34.2055C9.09202 34.5329 10.0501 34.9011 10.4579 35.2694C10.8452 35.5762 11.0695 36.0467 11.0695 36.5377C11.0695 37.0492 10.8248 37.5197 10.4171 37.847C9.98902 38.2357 9.35706 38.4199 8.56199 38.4199C7.48156 38.4199 6.64572 38.0312 6.07492 37.2947C5.70799 36.8242 5.48375 36.1695 5.36144 35.2898Z" fill="#FAF7F0"/>
<path d="M79.9932 12.5407L82.032 11.1086L84.5395 14.6888C84.9676 15.2616 85.2941 15.8753 85.5386 16.5504C85.6809 17.0618 85.6402 17.6143 85.4364 18.1052C85.1715 18.719 84.7434 19.2304 84.1724 19.5986C83.4998 20.0692 82.9289 20.3351 82.4398 20.417C81.971 20.4988 81.4814 20.417 81.033 20.2124C80.5439 19.9669 80.1158 19.6191 79.7894 19.169L81.543 17.5324C81.6853 17.7574 81.8688 17.962 82.0727 18.1257C82.2156 18.2279 82.3788 18.2893 82.5624 18.2893C82.7046 18.2893 82.8475 18.2279 82.9492 18.1462C83.1531 18.0234 83.2959 17.7779 83.2756 17.5324C83.2146 17.1846 83.0717 16.8368 82.8475 16.5709L79.9932 12.5407ZM86.109 14.8115L87.9642 13.3385C88.1681 13.584 88.433 13.7681 88.7188 13.8704C89.1265 13.9932 89.5546 13.9114 89.9008 13.6454C90.1453 13.4818 90.3492 13.2567 90.4311 12.9703C90.5531 12.602 90.3492 12.1929 89.9827 12.0701C89.9211 12.0497 89.8601 12.0292 89.7991 12.0292C89.5546 12.0088 89.1265 12.1111 88.4945 12.377C87.4548 12.8066 86.6393 12.9703 86.0277 12.9089C85.4364 12.8476 84.8863 12.5407 84.5599 12.0292C84.3153 11.6815 84.1928 11.2723 84.1724 10.8631C84.1724 10.3926 84.295 9.92208 84.5599 9.5334C84.9473 8.98098 85.416 8.51046 85.987 8.14224C86.8432 7.54896 87.5971 7.26252 88.25 7.26252C88.9023 7.26252 89.5133 7.56942 90.0843 8.20362L88.25 9.6561C87.8829 9.18558 87.1894 9.08328 86.7206 9.45156L86.6596 9.51294C86.4558 9.63564 86.3129 9.81978 86.2316 10.0448C86.1706 10.2085 86.2112 10.3926 86.3129 10.5358C86.3948 10.6381 86.5167 10.7199 86.6596 10.7199C86.8229 10.7404 87.1081 10.6586 87.5158 10.4744C88.5352 10.0448 89.3101 9.79932 89.8398 9.71748C90.2882 9.63564 90.7569 9.67656 91.185 9.8607C91.5724 10.0244 91.8989 10.3108 92.1231 10.6586C92.4083 11.0677 92.5715 11.5587 92.5918 12.0701C92.6122 12.602 92.4693 13.1135 92.1841 13.5636C91.817 14.116 91.3482 14.5865 90.7982 14.9547C89.6766 15.7321 88.7594 16.0594 88.0252 15.9367C87.2306 15.814 86.5783 15.4048 86.109 14.8115Z" fill="#FAF7F0"/>
<path fill-rule="evenodd" clip-rule="evenodd" d="M82.7017 25.3402C85.3766 25.513 88.2835 24.7904 90.9124 23.1506C93.222 23.3857 95.0563 24.1792 96.404 25.5314C98.035 27.1681 98.8708 29.4593 98.8708 32.4053C98.8708 34.5533 98.5037 36.2923 97.7905 37.6629C97.0969 39.0131 96.0165 40.1179 94.6916 40.8544C93.3261 41.6113 91.634 42 89.6156 42C87.5565 42 85.8645 41.6727 84.5192 41.018C83.1327 40.3225 81.9914 39.2382 81.2368 37.9084C80.401 36.4764 79.9729 34.6966 79.9729 32.5484C79.9729 29.5616 80.8088 27.2294 82.4601 25.5724C82.539 25.4931 82.6198 25.4158 82.7017 25.3402ZM57.7935 25.5724C56.1422 27.2294 55.3064 29.5616 55.3064 32.5484C55.3064 34.6966 55.7345 36.4764 56.5703 37.9084C57.3246 39.2382 58.4662 40.3225 59.8523 41.018C61.1982 41.6727 62.8902 42 64.9487 42C66.9672 42 68.6592 41.6113 70.0247 40.8544C71.3502 40.1179 72.4306 39.0131 73.1236 37.6629C73.8368 36.2923 74.2039 34.5533 74.2039 32.4053C74.2039 29.4593 73.3884 27.1681 71.7371 25.5314C70.0863 23.8948 67.7623 23.0765 64.7245 23.0765C61.7686 23.0765 59.4447 23.9152 57.7935 25.5724ZM61.9521 36.5582C61.2795 35.7399 60.9327 34.4101 60.9327 32.5689C60.9327 30.7073 61.2795 29.3775 61.9724 28.5796C62.6654 27.7818 63.6644 27.3317 64.7042 27.3726C65.8868 27.3726 66.8243 27.7613 67.5172 28.5592C68.2108 29.3366 68.5569 30.605 68.5569 32.3234C68.5569 34.3692 68.2311 35.7808 67.5585 36.5786C66.8852 37.3765 65.9478 37.7652 64.7448 37.7652C63.5628 37.7652 62.6247 37.3561 61.9521 36.5582ZM86.619 36.5582C85.9464 35.7399 85.5996 34.4101 85.5996 32.5689C85.5996 30.7073 85.9464 29.3775 86.6393 28.5796C87.3119 27.7818 88.3313 27.3317 89.3711 27.3726C90.5531 27.3726 91.4912 27.7613 92.1841 28.5592C92.877 29.3366 93.2238 30.605 93.2238 32.3234C93.2238 34.3692 92.8974 35.7808 92.2247 36.5786C91.5521 37.3765 90.6146 37.7652 89.4117 37.7652C88.2291 37.7652 87.2916 37.3561 86.619 36.5582Z" fill="#FAF7F0"/>
</g>
<defs>
<clipPath id="clip0_2_2">
<rect width="113" height="42" fill="white"/>
</clipPath>
</defs>
</svg>
